<svg width="28" height="16" viewBox="0 0 28 16" fill="none" xmlns="http://www.w3.org/2000/svg">
<path fill-rule="evenodd" clip-rule="evenodd" d="M26.8083 1.11032C27.0075 0.484016 26.8083 0.0284913 25.9257 0.0284913H22.9933C22.2531 0.0284913 21.9115 0.427033 21.7122 0.85415C21.7122 0.85415 20.2032 4.49826 18.0965 6.86119C17.4132 7.54448 17.1 7.77224 16.73 7.77224C16.5306 7.77224 16.2745 7.54448 16.2745 6.91817V1.08183C16.2745 0.341643 16.0467 0 15.4203 0H10.8083C10.3527 0 10.0681 0.341643 10.0681 0.683287C10.0681 1.39506 11.1214 1.56584 11.2353 3.55872V7.88612C11.2353 8.82566 11.0645 8.99644 10.6944 8.99644C9.69795 8.99644 7.27804 5.32384 5.82607 1.13881C5.54133 0.313152 5.25667 0 4.51648 0H1.55557C0.701499 0 0.559143 0.398626 0.559143 0.825659C0.559143 1.59434 1.55557 5.46621 5.19968 10.5908C7.61968 14.0925 11.0645 15.9715 14.1677 15.9715C16.0467 15.9715 16.2745 15.5445 16.2745 14.8328V12.1851C16.2745 11.331 16.4453 11.1887 17.0432 11.1887C17.4702 11.1887 18.2389 11.4163 19.9755 13.0961C21.9684 15.089 22.31 16 23.4203 16H26.3527C27.2068 16 27.6054 15.573 27.3777 14.7473C27.1214 13.9217 26.1535 12.726 24.9008 11.3025C24.2175 10.5054 23.1926 9.62283 22.8794 9.19571C22.4524 8.62639 22.5663 8.39863 22.8794 7.88612C22.851 7.88612 26.4381 2.81854 26.8083 1.11032Z" fill="white"/>
</svg>
