<svg width="26" height="26" viewBox="0 0 26 26" fill="none" xmlns="http://www.w3.org/2000/svg">
<path fill-rule="evenodd" clip-rule="evenodd" d="M13.0012 0.200195C9.52489 0.200195 9.08862 0.215395 7.72328 0.277529C6.36059 0.33993 5.43045 0.555666 4.61658 0.872202C3.7747 1.19914 3.06056 1.63648 2.34909 2.34822C1.63708 3.05969 1.19974 3.77383 0.871737 4.61544C0.554401 5.42958 0.338398 6.35999 0.277064 7.72214C0.215997 9.08749 0.199997 9.52403 0.199997 13.0003C0.199997 16.4766 0.215464 16.9116 0.277331 18.2769C0.339998 19.6396 0.555734 20.5697 0.872004 21.3836C1.19921 22.2255 1.63655 22.9396 2.34829 23.6511C3.05949 24.3631 3.77363 24.8015 4.61498 25.1285C5.42938 25.445 6.35979 25.6607 7.72221 25.7231C9.08756 25.7853 9.52356 25.8005 12.9996 25.8005C16.4762 25.8005 16.9111 25.7853 18.2765 25.7231C19.6391 25.6607 20.5703 25.445 21.3848 25.1285C22.2264 24.8015 22.9394 24.3631 23.6506 23.6511C24.3626 22.9396 24.8 22.2255 25.128 21.3839C25.4427 20.5697 25.6587 19.6393 25.7227 18.2772C25.784 16.9118 25.8 16.4766 25.8 13.0003C25.8 9.52403 25.784 9.08775 25.7227 7.72241C25.6587 6.35973 25.4427 5.42958 25.128 4.61571C24.8 3.77383 24.3626 3.05969 23.6506 2.34822C22.9386 1.63621 22.2266 1.19887 21.384 0.872202C20.5679 0.555666 19.6373 0.33993 18.2746 0.277529C16.9092 0.215395 16.4746 0.200195 12.9972 0.200195H13.0012ZM12.5743 2.50676H12.5746L13.0012 2.50689C16.4188 2.50689 16.8239 2.51915 18.1735 2.58049C19.4215 2.63755 20.0989 2.84609 20.5501 3.02129C21.1474 3.25329 21.5733 3.53063 22.021 3.97863C22.469 4.42664 22.7464 4.85331 22.9789 5.45065C23.1541 5.90132 23.3629 6.57866 23.4197 7.82667C23.481 9.17602 23.4944 9.58136 23.4944 12.9974C23.4944 16.4134 23.481 16.8188 23.4197 18.1681C23.3626 19.4161 23.1541 20.0935 22.9789 20.5441C22.7469 21.1415 22.469 21.5668 22.021 22.0146C21.573 22.4626 21.1477 22.7399 20.5501 22.9719C20.0994 23.1479 19.4215 23.3559 18.1735 23.413C16.8242 23.4743 16.4188 23.4876 13.0012 23.4876C9.58329 23.4876 9.17822 23.4743 7.82888 23.413C6.58086 23.3554 5.90352 23.1468 5.45205 22.9716C4.85471 22.7396 4.42804 22.4623 3.98004 22.0143C3.53203 21.5663 3.2547 21.1407 3.02216 20.5431C2.84696 20.0924 2.63816 19.4151 2.58136 18.167C2.52002 16.8177 2.50775 16.4124 2.50775 12.9942C2.50775 9.57603 2.52002 9.17282 2.58136 7.82347C2.63842 6.57546 2.84696 5.89812 3.02216 5.44692C3.25416 4.84958 3.53203 4.42291 3.98004 3.9749C4.42804 3.5269 4.85471 3.24956 5.45205 3.01702C5.90326 2.84102 6.58086 2.63302 7.82888 2.57569C9.00969 2.52235 9.46729 2.50635 11.8529 2.50369V2.50689C12.0758 2.50654 12.3156 2.50664 12.5743 2.50676ZM18.2978 6.16772C18.2978 5.31945 18.9858 4.63224 19.8338 4.63224V4.63171C20.6818 4.63171 21.3698 5.31972 21.3698 6.16772C21.3698 7.01573 20.6818 7.70374 19.8338 7.70374C18.9858 7.70374 18.2978 7.01573 18.2978 6.16772ZM13.0009 6.42693C9.37088 6.42707 6.4278 9.37024 6.4278 13.0003C6.4278 16.6305 9.37103 19.5724 13.0012 19.5724C16.6314 19.5724 19.5735 16.6305 19.5735 13.0003C19.5735 9.37016 16.6311 6.42693 13.0009 6.42693ZM17.2679 13.0003C17.2679 10.6438 15.3575 8.73362 13.0012 8.73362C10.6446 8.73362 8.73449 10.6438 8.73449 13.0003C8.73449 15.3566 10.6446 17.267 13.0012 17.267C15.3575 17.267 17.2679 15.3566 17.2679 13.0003Z" fill="white"/>
</svg>
