<svg width="28" height="24" viewBox="0 0 28 24" fill="none" xmlns="http://www.w3.org/2000/svg">
<path d="M0.702015 11.2085C3.50759 9.66314 6.63939 8.37334 9.56559 7.07694C14.5998 4.95354 19.654 2.86694 24.7592 0.924339C25.7525 0.593339 27.5372 0.269639 27.7122 1.74164C27.6164 3.82524 27.2222 5.89664 26.9518 7.96804C26.2655 12.5232 25.4723 17.0628 24.6988 21.603C24.4323 23.1153 22.5378 23.8982 21.3256 22.9304C18.4124 20.9626 15.4768 19.014 12.6008 17.0006C11.6587 16.0433 12.5323 14.6686 13.3737 13.985C15.7731 11.6204 18.3177 9.61144 20.5917 7.12464C21.2051 5.64334 19.3927 6.89174 18.7949 7.27424C15.5101 9.53784 12.3057 11.9396 8.84249 13.929C7.07349 14.9028 5.01169 14.0706 3.24349 13.5272C1.65807 12.8708 -0.665145 12.2095 0.701855 11.2086L0.702015 11.2085Z" fill="white"/>
</svg>
